<svg width="300" height="300" viewBox="0 0 300 300" fill="none" xmlns="http://www.w3.org/2000/svg">
<rect width="300" height="300" fill="#F3F4F6"/>
<path d="M150 100C165.464 100 177 111.536 177 127C177 142.464 165.464 154 150 154C134.536 154 123 142.464 123 127C123 111.536 134.536 100 150 100Z" fill="#9CA3AF"/>
<path d="M120 180H110V200H120V180Z" fill="#9CA3AF"/>
<path d="M190 180H180V200H190V180Z" fill="#9CA3AF"/>
<path d="M150 200C165.464 200 177 211.536 177 227C177 242.464 165.464 254 150 254C134.536 254 123 242.464 123 227C123 211.536 134.536 200 150 200Z" fill="#9CA3AF"/>
<text x="150" y="280" text-anchor="middle" fill="#6B7280" font-family="Arial, sans-serif" font-size="14">Sin imagen</text>
</svg>


